# xmcd CD database file
# Copyright (C) 1993-1998 Ti Kan
#
# Track frame offsets:
#  182
#  12835
#  24207
#  36320
#  49105
#  59492
#  71330
#  83150
#  95730
#  108215
#  119937
#  133405
#  145937
#  155127
#  171492
#  183240
#  195715
#  205675
#  216690
#  227142
#  238332
#  253040
#
# Disc length: 3542 seconds
#
# Revision: 1
# Processed by: cddbd v1.4b41PL1 Copyright (c) Steve Scherf et al.
# Submitted via: CDWizzard Release:4.35
#
DISCID=540dd416
DTITLE=Hank Snow - 22 Legendary Hits
DYEAR=1900
DGENRE=
TTITLE0=The Golden Rocket
TTITLE1=(Now And Then There's) A Fool Such As I
TTITLE2=The Gal Who Invented Kissin'
TTITLE3=Beggar To A King
TTITLE4=The Gold Rush Is Over
TTITLE5=Ninety Miles An Hour (Down A Dead End Street)
TTITLE6=Tangled Mind
TTITLE7=The Rhumba Boogie
TTITLE8=Yellow Roses
TTITLE9=The Last Ride
TTITLE10=I Don't Hurt Anymore
TTITLE11=Hello Love
TTITLE12=Hula Rock
TTITLE13=Old Shep
TTITLE14=I Went To Your Wedding
TTITLE15=I've Been Everywhere
TTITLE16=Down The Trail Of Achin' Hearts
TTITLE17=Let Me Go, Lover!
TTITLE18=Conscience I'm Guilty
TTITLE19=Cryin', Prayin', Waitin', Hopin'
TTITLE20=When Jimmie Rodgers Said Goodbye
TTITLE21=I'm Moving On
EXTD=
EXTT0=
EXTT1=
EXTT2=
EXTT3=
EXTT4=
EXTT5=
EXTT6=
EXTT7=
EXTT8=
EXTT9=
EXTT10=
EXTT11=
EXTT12=
EXTT13=
EXTT14=
EXTT15=
EXTT16=
EXTT17=
EXTT18=
EXTT19=
EXTT20=
EXTT21=
PLAYORDER=
